<?xml version="1.0" standalone="no"?>
<!DOCTYPE svg PUBLIC "-//W3C//DTD SVG 20010904//EN"
 "http://www.w3.org/TR/2001/REC-SVG-20010904/DTD/svg10.dtd">
<svg version="1.0" xmlns="http://www.w3.org/2000/svg"
 width="601.000000pt" height="601.000000pt" viewBox="0 0 601.000000 601.000000"
 preserveAspectRatio="xMidYMid meet">
<metadata>
Created by potrace 1.14, written by Peter Selinger 2001-2017
</metadata>
<g transform="translate(0.000000,601.000000) scale(0.100000,-0.100000)"
fill="#000000" stroke="none">
<path d="M4225 5259 c-451 -50 -850 -344 -1065 -784 -58 -117 -111 -274 -137
-397 -9 -49 -20 -88 -23 -88 -3 0 -11 33 -17 73 -17 107 -78 287 -136 402 -74
149 -150 257 -262 373 -286 298 -603 433 -985 419 -231 -9 -438 -68 -621 -177
-393 -237 -650 -575 -765 -1004 -66 -249 -73 -584 -18 -856 89 -439 306 -832
663 -1203 263 -273 523 -478 1411 -1117 179 -128 379 -272 445 -320 66 -47
158 -114 204 -147 l84 -60 121 85 c471 334 1192 856 1406 1018 354 267 618
509 792 724 292 363 469 773 519 1203 17 147 7 437 -20 571 -68 336 -212 609
-446 841 -136 135 -262 226 -420 305 -234 115 -497 166 -730 139z m-2479
-1231 c91 -93 161 -187 318 -425 69 -105 130 -194 135 -197 39 -25 84 55 184
324 38 103 45 115 66 115 19 0 27 -7 33 -30 5 -16 8 -188 7 -382 -2 -274 1
-356 11 -368 20 -24 77 -18 166 21 96 41 131 42 126 4 -4 -25 -141 -273 -234
-422 -26 -43 -48 -81 -48 -84 0 -4 69 -77 153 -163 83 -86 194 -211 246 -279
52 -67 98 -122 101 -122 4 0 22 21 40 46 63 89 163 200 310 349 l149 150 -78
130 c-135 224 -211 368 -211 397 0 38 27 37 114 -2 90 -41 150 -49 177 -24 21
19 21 24 14 271 -8 277 -1 427 21 457 13 18 15 19 33 2 11 -10 45 -77 77 -149
86 -196 136 -266 173 -242 6 3 45 61 87 128 202 320 370 541 427 561 21 8 31
6 44 -7 15 -15 15 -25 5 -93 -7 -43 -30 -149 -52 -237 -49 -196 -50 -219 -10
-259 38 -37 45 -36 225 31 225 85 329 108 355 76 19 -23 6 -55 -64 -156 -163
-237 -417 -619 -445 -670 -33 -59 -39 -100 -18 -117 7 -6 103 -38 214 -71 292
-88 403 -138 403 -181 0 -38 -35 -48 -324 -89 -113 -17 -211 -33 -216 -36 -6
-3 -10 -21 -10 -40 0 -25 16 -54 65 -121 72 -98 83 -139 41 -150 -27 -6 -115
27 -396 150 -107 47 -207 86 -222 86 -39 0 -45 -34 -23 -129 21 -94 18 -146
-9 -146 -14 0 -43 41 -111 160 -125 217 -211 359 -222 362 -30 10 -329 -309
-430 -459 l-66 -97 7 -253 c8 -273 5 -296 -41 -317 -35 -16 -57 -14 -88 11
l-27 21 3 271 4 271 -29 50 c-44 74 -99 149 -194 258 -96 111 -261 269 -273
261 -8 -5 -202 -329 -279 -466 -24 -43 -50 -78 -57 -78 -28 0 -32 46 -12 132
46 194 42 194 -426 -7 -205 -88 -212 -90 -230 -75 -25 21 -17 45 40 125 72 99
88 132 81 160 -5 19 -15 25 -49 29 -340 46 -459 69 -483 93 -51 52 45 100 411
208 206 61 222 72 201 133 -24 66 -199 343 -354 559 -185 258 -203 293 -166
324 22 18 107 2 325 -61 96 -27 185 -50 198 -50 14 0 35 10 48 22 33 31 30 80
-12 223 -45 149 -65 244 -65 299 0 50 4 56 39 56 20 0 45 -19 97 -72z"/>
</g>
</svg>
